<?xml version="1.0" standalone="no"?>
<!DOCTYPE svg PUBLIC "-//W3C//DTD SVG 20010904//EN"
 "http://www.w3.org/TR/2001/REC-SVG-20010904/DTD/svg10.dtd">
<svg version="1.0" xmlns="http://www.w3.org/2000/svg"
 width="700.000000pt" height="700.000000pt" viewBox="0 0 700.000000 700.000000"
 preserveAspectRatio="xMidYMid meet">
<metadata>
Created by potrace 1.14, written by Peter Selinger 2001-2017
</metadata>
<g transform="translate(0.000000,700.000000) scale(0.100000,-0.100000)"
fill="#000000" stroke="none">
<path d="M4558 6616 c-1 -2 -37 -6 -78 -10 -72 -6 -94 -9 -170 -22 -19 -3 -48
-8 -65 -11 -118 -17 -473 -121 -553 -162 -9 -5 -28 -13 -42 -19 -177 -70 -414
-212 -605 -361 -97 -75 -283 -264 -332 -336 -94 -138 -162 -194 -263 -214 -50
-10 -156 -9 -228 3 -130 22 -371 26 -515 10 -352 -40 -622 -149 -815 -329 -56
-52 -152 -165 -152 -178 0 -3 -15 -32 -34 -65 -45 -80 -85 -202 -107 -331 -24
-137 -20 -328 9 -416 24 -75 72 -177 110 -233 l29 -43 -39 -97 c-21 -53 -71
-185 -109 -292 -39 -107 -74 -204 -79 -215 -32 -73 -243 -747 -265 -845 -2 -8
-13 -50 -25 -92 -11 -43 -23 -85 -24 -95 -2 -10 -11 -43 -20 -73 -8 -30 -17
-66 -20 -80 -2 -14 -9 -45 -16 -70 -7 -25 -14 -54 -16 -65 -5 -25 -13 -59 -19
-82 -11 -46 -84 -424 -90 -473 -4 -30 -9 -59 -12 -63 -2 -4 -6 -39 -8 -77 -3
-54 -1 -73 13 -90 24 -30 72 -32 118 -6 51 28 74 65 113 178 18 51 37 102 41
113 5 11 38 108 74 215 72 216 81 239 171 490 121 332 197 524 330 835 68 158
99 227 233 507 20 43 42 78 48 78 6 0 37 -9 70 -21 32 -11 95 -29 139 -40 217
-52 326 -46 655 37 210 53 309 70 385 69 77 -2 99 -10 370 -140 77 -37 190
-91 250 -120 61 -29 171 -82 245 -117 349 -169 577 -270 695 -310 188 -63 401
-204 576 -381 85 -87 101 -115 105 -187 17 -402 22 -466 41 -513 33 -85 99
-155 196 -207 65 -35 63 -17 21 -177 -31 -122 -83 -258 -125 -330 -69 -116
-148 -172 -369 -258 -240 -94 -279 -110 -335 -141 -81 -44 -115 -82 -122 -133
-5 -36 -2 -44 26 -70 56 -53 215 -59 419 -16 34 7 62 11 62 9 0 -1 -5 -15 -10
-29 -13 -33 4 -94 33 -126 57 -62 217 33 465 276 l113 110 129 399 c71 219
134 403 142 407 7 5 23 9 34 9 45 0 154 42 213 81 85 57 144 144 307 457 147
281 141 271 373 517 249 264 384 447 507 685 27 52 49 97 49 100 1 3 11 27 23
55 44 95 110 315 127 415 3 19 7 46 10 60 7 40 16 92 21 130 3 19 6 127 8 240
4 253 -12 405 -70 643 -2 9 -6 27 -9 39 -2 12 -17 58 -31 102 -159 481 -433
854 -829 1127 -127 88 -320 185 -470 237 -86 30 -225 70 -260 75 -16 3 -50 10
-75 15 -25 6 -70 13 -101 16 -31 4 -67 9 -80 12 -25 6 -505 15 -511 10z"/>
</g>
</svg>
